<svg xmlns="http://www.w3.org/2000/svg" width="200" height="140" viewBox="0 0 200 140">
  <g id="explorer" transform="translate(-280 -620)">
    <g id="explorer2" transform="translate(287.074 627.242)">
      <g id="Camada_x0020_1" transform="translate(74.843 0.691)">
        <path id="Path_73" data-name="Path 73" d="M28.687,54.629l2.673,6.726c4.063-.341,15.53-9.321,19.806-12.12l57.815-39.093L106.549,4.03C96.045,10.858,32.242,50.02,28.42,54.014l.267.615Z" transform="translate(-28.42 7.369)" fill="none" stroke="#fec63e" stroke-width="4" fill-rule="evenodd"/>
        <path id="Path_74" data-name="Path 74" d="M57.82,10.247l2.94,8.843c3.822.58,4.3-1.263,6.95.854l.962.922s.241.615.722.307L91.365,8.437a58.259,58.259,0,0,0-7.457-6.692c-4.09-2.7-10.05.41-17.721,2.322C58.061,6.252,60.2,5.638,58.061,9.325l-.241.922Z" transform="translate(20.764 -0.691)" fill="none" stroke="#fec63e" stroke-width="4" fill-rule="evenodd"/>
      </g>
      <g id="Camada_x0020_1_0" transform="translate(0.67 47.803)">
        <path id="Path_75" data-name="Path 75" d="M89.036,30.5c-8.66,6.282-13.311,14-16.037-1.229l11.707-8.536c-4.437.649-8.286-3.448-11.547-6.248-14.915,7.409-4.036,16.7-36.859,15.6L9.25,29.922c-3.929.239-6.6-1.229-8.58,1.912.641,9.014,44.076,56.642,50.491,58.9,6.656,2.9,13.177-23.353,25.847-28.236,7.484-2.868,29.135-5.668,33.946-10-1.016-5.292-2.325-5.224-5.506-6.35-3.208-1.127-4.3-2.049-6.976-3.551a32.384,32.384,0,0,1-6.682-2.868c-2.459-2.527-2.753-3.175-2.165-7.921l-.08-1.673-.508.376Z" transform="translate(-0.67 -14.49)" fill="none" stroke="#fec63e" stroke-width="4" fill-rule="evenodd"/>
      </g>
    </g>
    <rect id="Rectangle_38" data-name="Rectangle 38" width="200" height="140" transform="translate(280 620)" fill="none"/>
  </g>
</svg>
