<svg xmlns="http://www.w3.org/2000/svg" width="200" height="140" viewBox="0 0 200 140">
  <g id="flying-v" transform="translate(-280 -620)">
    <g id="Flying_V" data-name="Flying V" transform="translate(287.279 617.096)">
      <path id="Path_70" data-name="Path 70" d="M89.626,33.554c-7.878,4.574-11.557,9.4-14.846,3.3-3.772-7.147,3.437-8,10.832-12.317-4.887-3.148-9.309-3.914-15.347-3.063C64.691,22.046,58.894,23.428,53.32,24c-6.02.851-47.585,5.7-50.576,9.445-4.143,5.084-.167,10.1,8.194,11.891L33.513,51.55c13.508,4.148,5,17.783.65,30.313-2.285,6.658-11,23.761.372,23.144,3.958-.3,9.941-9.126,12.468-12.614,8.083-9.36,15.682-18.464,23.523-28.377,7.841-9.892,18.246-19.294,19.565-30.738l-.465.277Z" transform="translate(0 30.887)" fill="none" stroke="#fec63e" stroke-width="4" fill-rule="evenodd"/>
      <path id="Path_71" data-name="Path 71" d="M40.722,49.7,43.3,55.527c3.958-.3,15.05-8.1,19.231-10.53l56-33.95-2.36-5.3c-10.182,5.935-72,39.928-75.7,43.416Z" transform="translate(33.799 13.53)" fill="none" stroke="#fec63e" stroke-width="4" fill-rule="evenodd"/>
      <path id="Path_72" data-name="Path 72" d="M81.47,9.391l2.824,7.7c3.735.511,4.181-1.106,6.745.745l.929.787s.242.532.706.255L113.986,7.816a60.2,60.2,0,0,0-7.246-5.807c-3.958-2.361-9.755.362-17.168,2-7.9,1.936-5.816,1.383-7.878,4.595l-.223.787Z" transform="translate(68.97 8.272)" fill="none" stroke="#fec63e" stroke-width="4" fill-rule="evenodd"/>
    </g>
    <rect id="Rectangle_37" data-name="Rectangle 37" width="200" height="140" transform="translate(280 620)" fill="none"/>
  </g>
</svg>
