<svg xmlns="http://www.w3.org/2000/svg" width="200" height="140" viewBox="0 0 200 140">
  <defs>
    <style>
      .cls-1, .cls-2 {
        fill: none;
      }

      .cls-1 {
        stroke: #fec63e;
        stroke-width: 4px;
        fill-rule: evenodd;
      }
    </style>
  </defs>
  <g id="flying-v" transform="translate(-280 -620)">
    <g id="Flying_V" data-name="Flying V" transform="translate(305.91 619.641)">
      <path id="Path_70" data-name="Path 70" class="cls-1" d="M71.771,33.109c-6.289,4.41-9.226,9.065-11.852,3.179-3.011-6.891,2.744-7.712,8.648-11.875-3.9-3.035-7.432-3.774-12.252-2.953-4.45.554-9.078,1.887-13.528,2.441-4.806.82-37.988,5.5-40.376,9.106-3.308,4.9-.134,9.742,6.542,11.465l18.023,5.989c10.784,4,3.99,17.146.519,29.227-1.825,6.42-8.781,22.91.3,22.315,3.16-.287,7.936-8.8,9.953-12.162,6.453-9.024,12.519-17.8,18.779-27.36,6.26-9.537,14.566-18.6,15.62-29.637l-.371.267Z" transform="translate(0 29.358)"/>
      <path id="Path_71" data-name="Path 71" class="cls-1" d="M40.673,48.124l2.062,5.62c3.16-.287,12.015-7.814,15.353-10.152l44.708-32.734L100.911,5.75c-8.129,5.722-57.479,38.5-60.431,41.861Z" transform="translate(19.039 13.174)"/>
      <path id="Path_72" data-name="Path 72" class="cls-1" d="M81.47,9.093l2.255,7.425c2.982.492,3.338-1.067,5.385.718l.742.759s.193.513.564.246L107.428,7.575a50.98,50.98,0,0,0-5.785-5.6C98.484-.3,93.856,2.325,87.937,3.9c-6.3,1.866-4.643,1.333-6.289,4.43l-.178.759Z" transform="translate(38.851 8.272)"/>
    </g>
    <rect id="Rectangle_37" data-name="Rectangle 37" class="cls-2" width="200" height="140" transform="translate(280 620)"/>
  </g>
</svg>
