<svg xmlns="http://www.w3.org/2000/svg" width="200" height="140" viewBox="0 0 200 140">
  <g id="Vintage" transform="translate(-280 -620)">
    <g id="Vintage-2" data-name="Vintage" transform="translate(281.485 620.827)">
      <path id="vintage-3" data-name="vintage" d="M182.3,3.764c-.379,1.316.134,2.36.32,3.539-1.472.484-3.012,1.273-4.484,1.748-.811-1.18-.446-2.444-1.807-2.954-2.8-1.035-1.16,4.125-1.16,4.125a38.468,38.468,0,0,1-4.588,2.113c-.6-.857-.766-2.563-1.227-2.725-3.592-1.333-1.837,3.446-1.874,4.252-1.443-.085-2.491,1.188-4.8,1.664-.595-3.862-2.692-3.446-3.22-1.562a9.283,9.283,0,0,0,.513,2.843c-5.853,1.893-4.722,4.609-7.712,6.374-1.026.611-1.77.993-2.8,1.613L104.108,50.327c-1.941,1.137-3.629,2.113-5.577,3.251L92.656,56.7c-3.659,2.13-7.689,4.8-11.341,6.62l-11.5,6.264c-2.841-1.961-3.242-2.631-2.06-6.841.952-3.285,5.243-4.439,7.585-5.475,3.235-1.434,6.812-3.039,7.823-6.637.4-1.46-1.5-4.363-3.837-5.228-5.168-1.918-16.859,2.394-20.651,5.458C49.806,58.017,49.784,63.33,42.712,67.4c-7.161,4.142-13.9,2.046-21.856,2.784-6.418.6-14.122,5.95-16.7,14.93-3.451,12.12.684,17.544,5.488,28.34,1.725,3.853,3.413,8.165,5.28,11.832C19,133.2,28,137.631,36.034,135.687a16.839,16.839,0,0,0,7.213-3.514,22.265,22.265,0,0,0,3.064-2.7c4.06-4.1,5.273-5.78,8.329-11.144,4.38-7.664,6.857-7.452,13.773-8.522,6.053-.925,12.694-1.757,14.672-8.751.714-2.572-.045-6.086-2.662-7.053-1.792-.654-13.5,1.867-11.348-5.7.692-2.5,3.607-3.667,5.213-4.634l11.958-6.951c2.157-1.256,3.77-2.47,5.875-3.7l65.457-38.975c3.123-1.808,3.718-3.081,7.526-1.672,1.554.594,4.425,4.235,7.481,1,1.1-1.163,1.777-1.952,2.9-3.064l5.979-6.315c7.957-8.988,5.377-3.361,10.129-6.018a6.826,6.826,0,0,0,2.863-3.344l.521-1.774a6.608,6.608,0,0,0-4.5-7.554c-2.157-.806-3.562.2-5.191.747a3.777,3.777,0,0,0-.848-2.682,1.21,1.21,0,0,0-2.149.441l.015-.042Z" transform="translate(-0.5 -0.5)" fill="none" stroke="#fec63e" stroke-width="4" fill-rule="evenodd"/>
    </g>
    <rect id="Rectangle_36" data-name="Rectangle 36" width="200" height="140" transform="translate(280 620)" fill="none" opacity="0.4"/>
  </g>
</svg>
