<svg xmlns="http://www.w3.org/2000/svg" width="200" height="140" viewBox="0 0 200 140">
  <defs>
    <style>
      .cls-1, .cls-2 {
        fill: none;
      }

      .cls-1 {
        stroke: #fec63e;
        stroke-width: 4px;
        fill-rule: evenodd;
      }

      .cls-2 {
        opacity: 0.4;
      }
    </style>
  </defs>
  <g id="Vintage" transform="translate(-280 -620)">
    <g id="Vintage-2" data-name="Vintage" transform="translate(305.614 627.612)">
      <path id="vintage-3" data-name="vintage" class="cls-1" d="M137.32,3.683a8.1,8.1,0,0,0,.24,3.214c-1.1.439-2.257,1.156-3.36,1.588-.607-1.071-.334-2.22-1.354-2.682-2.1-.94-.869,3.746-.869,3.746a26.781,26.781,0,0,1-3.438,1.919c-.451-.778-.574-2.328-.919-2.474-2.691-1.21-1.376,3.129-1.4,3.861-1.081-.077-1.867,1.079-3.594,1.511-.446-3.507-2.017-3.129-2.413-1.418a10.043,10.043,0,0,0,.384,2.582c-4.385,1.719-3.538,4.185-5.778,5.788-.769.555-1.326.9-2.1,1.464L78.729,45.965C77.275,47,76.01,47.884,74.55,48.916l-4.4,2.836c-2.741,1.934-5.762,4.355-8.5,6.012l-8.62,5.688c-2.129-1.78-2.429-2.389-1.543-6.212.713-2.983,3.928-4.031,5.683-4.971,2.424-1.3,5.1-2.759,5.862-6.027.3-1.326-1.126-3.961-2.875-4.748-3.873-1.742-12.632,2.173-15.474,4.956-6.642,6.5-6.659,11.322-11.958,15.021C27.361,65.232,22.312,63.329,16.35,64c-4.809.547-10.581,5.4-12.509,13.557-2.585,11.006.513,15.931,4.112,25.734,1.293,3.5,2.558,7.414,3.956,10.744,3.048,7.183,9.8,11.206,15.814,9.441a11.879,11.879,0,0,0,5.4-3.191,18.2,18.2,0,0,0,2.3-2.451,38.086,38.086,0,0,0,6.241-10.119c3.282-6.96,5.137-6.767,10.319-7.738,4.536-.84,9.512-1.6,10.994-7.946.535-2.335-.033-5.526-1.995-6.4-1.343-.593-10.119,1.7-8.5-5.179.518-2.266,2.7-3.329,3.906-4.208l8.96-6.312c1.616-1.141,2.825-2.243,4.4-3.36l49.045-35.391c2.34-1.642,2.786-2.8,5.639-1.518,1.165.539,3.315,3.846,5.605.909.825-1.056,1.332-1.773,2.173-2.782l4.48-5.734c5.962-8.162,4.029-3.052,7.589-5.464a6.017,6.017,0,0,0,2.145-3.037l.39-1.611c.345-2.659-.529-5.6-3.371-6.859-1.616-.732-2.669.185-3.889.678a3.931,3.931,0,0,0-.635-2.435.861.861,0,0,0-1.61.4l.011-.039Z" transform="translate(-0.5 -0.5)"/>
    </g>
    <rect id="Rectangle_36" data-name="Rectangle 36" class="cls-2" width="200" height="140" transform="translate(280 620)"/>
  </g>
</svg>
