<svg xmlns="http://www.w3.org/2000/svg" width="200" height="140" viewBox="0 0 200 140">
  <defs>
    <style>
      .cls-1, .cls-2 {
        fill: none;
      }

      .cls-1 {
        stroke: #fec63e;
        stroke-width: 4px;
        fill-rule: evenodd;
      }
    </style>
  </defs>
  <g id="explorer" transform="translate(-280 -620)">
    <g id="explorer2" transform="translate(306.33 641.309)">
      <g id="Camada_x0020_1" transform="translate(58.656 0.691)">
        <path id="Path_73" data-name="Path 73" class="cls-1" d="M28.629,43.633l2.09,5.264c3.176-.267,12.14-7.3,15.484-9.487l45.2-30.6L89.5,4.03c-8.212,5.345-58.09,36-61.078,39.122l.209.481Z" transform="translate(-28.42 4.892)"/>
        <path id="Path_74" data-name="Path 74" class="cls-1" d="M57.82,8.17l2.3,6.921c2.988.454,3.364-.989,5.433.668l.752.722s.188.481.564.241L84.044,6.754a45.563,45.563,0,0,0-5.83-5.238c-3.2-2.111-7.857.321-13.854,1.817-6.352,1.71-4.681,1.229-6.352,4.115l-.188.722Z" transform="translate(3.613 -0.691)"/>
      </g>
      <g id="Camada_x0020_1_0" transform="translate(0.67 37.565)">
        <path id="Path_75" data-name="Path 75" class="cls-1" d="M69.751,27.023c-6.77,4.917-10.406,10.956-12.537-.962l9.152-6.681c-3.469.508-6.478-2.7-9.027-4.89-11.66,5.8-3.155,13.067-28.815,12.212L7.378,26.569c-3.072.187-5.161-.962-6.708,1.5.5,7.055,34.457,44.333,39.472,46.1,5.2,2.271,10.3-18.278,20.206-22.1,5.851-2.245,22.776-4.436,26.538-7.83-.794-4.142-1.818-4.089-4.3-4.97a27.713,27.713,0,0,1-5.454-2.779A25.3,25.3,0,0,1,71.9,34.238c-1.922-1.977-2.152-2.485-1.693-6.2l-.063-1.309-.4.294Z" transform="translate(-0.67 -14.49)"/>
      </g>
    </g>
    <rect id="Rectangle_38" data-name="Rectangle 38" class="cls-2" width="200" height="140" transform="translate(280 620)"/>
  </g>
</svg>
